<?xml version="1.0" encoding="UTF-8"?>
<svg id="katman_1" data-name="katman 1" xmlns="http://www.w3.org/2000/svg" viewBox="0 0 518.59 518.59">
  <defs>
    <style>
      .cls-1 {
        fill: #ad2517;
      }
    </style>
  </defs>
  <path class="cls-1" d="M159.8,245.14H0V0h245.74v159.42c0,47.35-38.47,85.73-85.94,85.73Z"/>
  <path class="cls-1" d="M245.74,518.59H0v-245.14h159.8c47.46,0,85.94,38.38,85.94,85.73v159.42Z"/>
  <path class="cls-1" d="M518.59,245.14h-159.8c-47.46,0-85.94-38.38-85.94-85.73v-73.69c0-47.35,38.47-85.73,85.94-85.73h159.8v245.14Z"/>
  <path class="cls-1" d="M432.65,518.59h-159.8v-245.14h159.8c47.46,0,85.94,38.38,85.94,85.73v73.69c0,47.35-38.47,85.73-85.94,85.73Z"/>
</svg>